<svg xmlns="http://www.w3.org/2000/svg" width="600" height="600">
<line x1="80.0" y1="100" x2="50.0" y2="300" stroke="darkgrey" stroke-width="10.01" />
<line x1="80.0" y1="100" x2="150.0" y2="300" stroke="darkgrey" stroke-width="11.00" />
<line x1="80.0" y1="100" x2="350.0" y2="300" stroke="darkgrey" stroke-width="2.84" />
<line x1="80.0" y1="100" x2="160.0" y2="500" stroke="darkgrey" stroke-width="4.71" />
<line x1="80.0" y1="100" x2="440.0" y2="500" stroke="darkgrey" stroke-width="5.12" />
<line x1="168.0" y1="100" x2="50.0" y2="300" stroke="darkgrey" stroke-width="6.39" />
<line x1="168.0" y1="100" x2="150.0" y2="300" stroke="darkgrey" stroke-width="7.45" />
<line x1="168.0" y1="100" x2="250.0" y2="300" stroke="darkgrey" stroke-width="1.07" />
<line x1="168.0" y1="100" x2="440.0" y2="500" stroke="darkgrey" stroke-width="6.20" />
<line x1="256.0" y1="100" x2="550.0" y2="300" stroke="darkgrey" stroke-width="12.00" />
<line x1="344.0" y1="100" x2="150.0" y2="300" stroke="darkgrey" stroke-width="9.19" />
<line x1="344.0" y1="100" x2="250.0" y2="300" stroke="darkgrey" stroke-width="11.65" />
<line x1="344.0" y1="100" x2="450.0" y2="300" stroke="darkgrey" stroke-width="1.11" />
<line x1="344.0" y1="100" x2="440.0" y2="500" stroke="darkgrey" stroke-width="6.71" />
<line x1="432.0" y1="100" x2="350.0" y2="300" stroke="darkgrey" stroke-width="9.65" />
<line x1="432.0" y1="100" x2="550.0" y2="300" stroke="darkgrey" stroke-width="8.82" />
<line x1="432.0" y1="100" x2="160.0" y2="500" stroke="darkgrey" stroke-width="6.28" />
<line x1="520.0" y1="100" x2="50.0" y2="300" stroke="darkgrey" stroke-width="5.88" />
<line x1="520.0" y1="100" x2="350.0" y2="300" stroke="darkgrey" stroke-width="5.09" />
<line x1="520.0" y1="100" x2="440.0" y2="500" stroke="darkgrey" stroke-width="4.66" />
<line x1="50.0" y1="300" x2="150.0" y2="300" stroke="darkgrey" stroke-width="6.32" />
<line x1="50.0" y1="300" x2="350.0" y2="300" stroke="darkgrey" stroke-width="1.79" />
<line x1="50.0" y1="300" x2="160.0" y2="500" stroke="darkgrey" stroke-width="1.74" />
<line x1="50.0" y1="300" x2="300.0" y2="500" stroke="darkgrey" stroke-width="10.55" />
<line x1="150.0" y1="300" x2="250.0" y2="300" stroke="darkgrey" stroke-width="10.73" />
<line x1="150.0" y1="300" x2="350.0" y2="300" stroke="darkgrey" stroke-width="1.66" />
<line x1="150.0" y1="300" x2="300.0" y2="500" stroke="darkgrey" stroke-width="10.43" />
<line x1="250.0" y1="300" x2="350.0" y2="300" stroke="darkgrey" stroke-width="3.87" />
<line x1="250.0" y1="300" x2="450.0" y2="300" stroke="darkgrey" stroke-width="2.07" />
<line x1="250.0" y1="300" x2="160.0" y2="500" stroke="darkgrey" stroke-width="2.00" />
<line x1="350.0" y1="300" x2="300.0" y2="500" stroke="darkgrey" stroke-width="10.83" />
<line x1="350.0" y1="300" x2="440.0" y2="500" stroke="darkgrey" stroke-width="9.95" />
<line x1="450.0" y1="300" x2="550.0" y2="300" stroke="darkgrey" stroke-width="5.71" />
<line x1="450.0" y1="300" x2="160.0" y2="500" stroke="darkgrey" stroke-width="8.96" />
<line x1="550.0" y1="300" x2="440.0" y2="500" stroke="darkgrey" stroke-width="2.06" />
<line x1="160.0" y1="500" x2="300.0" y2="500" stroke="darkgrey" stroke-width="1.08" />
<line x1="300.0" y1="500" x2="440.0" y2="500" stroke="darkgrey" stroke-width="7.89" />
<circle cx="80.0" cy="100" r="25" fill="#8a2be2" stroke="black" stroke-width="2" />
<circle cx="168.0" cy="100" r="25" fill="#a143b4" stroke="black" stroke-width="2" />
<circle cx="256.0" cy="100" r="25" fill="#b85b87" stroke="black" stroke-width="2" />
<circle cx="344.0" cy="100" r="25" fill="#d0745a" stroke="black" stroke-width="2" />
<circle cx="432.0" cy="100" r="25" fill="#e78c2d" stroke="black" stroke-width="2" />
<circle cx="520.0" cy="100" r="25" fill="#ffa500" stroke="black" stroke-width="2" />
<circle cx="50.0" cy="300" r="25" fill="#797979" stroke="black" stroke-width="2" />
<circle cx="150.0" cy="300" r="25" fill="#999999" stroke="black" stroke-width="2" />
<circle cx="250.0" cy="300" r="25" fill="#a9a9a9" stroke="black" stroke-width="2" />
<circle cx="350.0" cy="300" r="25" fill="#686868" stroke="black" stroke-width="2" />
<circle cx="450.0" cy="300" r="25" fill="#717171" stroke="black" stroke-width="2" />
<circle cx="550.0" cy="300" r="25" fill="#b2b2b2" stroke="black" stroke-width="2" />
<circle cx="160.0" cy="500" r="22" fill="red" stroke="black" stroke-width="2" />
<text x="160.0" y="504" font-size="26" text-anchor="middle" fill="white" font-weight="bold">x</text>
<circle cx="300.0" cy="500" r="22" fill="blue" stroke="black" stroke-width="2" />
<text x="300.0" y="504" font-size="26" text-anchor="middle" fill="white" font-weight="bold">y</text>
<circle cx="440.0" cy="500" r="22" fill="green" stroke="black" stroke-width="2" />
<text x="440.0" y="504" font-size="26" text-anchor="middle" fill="white" font-weight="bold">z</text>
</svg>