<svg xmlns="http://www.w3.org/2000/svg" width="600" height="600">
<line x1="80.0" y1="100" x2="150.0" y2="300" stroke="darkgrey" stroke-width="1.02" />
<line x1="80.0" y1="100" x2="250.0" y2="300" stroke="darkgrey" stroke-width="9.67" />
<line x1="80.0" y1="100" x2="300.0" y2="500" stroke="darkgrey" stroke-width="2.75" />
<line x1="80.0" y1="100" x2="440.0" y2="500" stroke="darkgrey" stroke-width="1.83" />
<line x1="168.0" y1="100" x2="50.0" y2="300" stroke="darkgrey" stroke-width="4.69" />
<line x1="168.0" y1="100" x2="350.0" y2="300" stroke="darkgrey" stroke-width="0.93" />
<line x1="168.0" y1="100" x2="450.0" y2="300" stroke="darkgrey" stroke-width="8.72" />
<line x1="168.0" y1="100" x2="160.0" y2="500" stroke="darkgrey" stroke-width="6.69" />
<line x1="168.0" y1="100" x2="300.0" y2="500" stroke="darkgrey" stroke-width="3.49" />
<line x1="256.0" y1="100" x2="50.0" y2="300" stroke="darkgrey" stroke-width="4.17" />
<line x1="256.0" y1="100" x2="150.0" y2="300" stroke="darkgrey" stroke-width="1.25" />
<line x1="256.0" y1="100" x2="350.0" y2="300" stroke="darkgrey" stroke-width="1.11" />
<line x1="256.0" y1="100" x2="440.0" y2="500" stroke="darkgrey" stroke-width="7.13" />
<line x1="432.0" y1="100" x2="250.0" y2="300" stroke="darkgrey" stroke-width="1.30" />
<line x1="432.0" y1="100" x2="450.0" y2="300" stroke="darkgrey" stroke-width="9.06" />
<line x1="50.0" y1="300" x2="150.0" y2="300" stroke="darkgrey" stroke-width="12.00" />
<line x1="150.0" y1="300" x2="250.0" y2="300" stroke="darkgrey" stroke-width="7.43" />
<line x1="150.0" y1="300" x2="350.0" y2="300" stroke="darkgrey" stroke-width="12.00" />
<line x1="150.0" y1="300" x2="450.0" y2="300" stroke="darkgrey" stroke-width="5.52" />
<line x1="150.0" y1="300" x2="300.0" y2="500" stroke="darkgrey" stroke-width="2.56" />
<line x1="250.0" y1="300" x2="350.0" y2="300" stroke="darkgrey" stroke-width="10.22" />
<line x1="250.0" y1="300" x2="450.0" y2="300" stroke="darkgrey" stroke-width="1.67" />
<line x1="250.0" y1="300" x2="160.0" y2="500" stroke="darkgrey" stroke-width="8.92" />
<line x1="350.0" y1="300" x2="550.0" y2="300" stroke="darkgrey" stroke-width="3.22" />
<line x1="350.0" y1="300" x2="300.0" y2="500" stroke="darkgrey" stroke-width="6.13" />
<line x1="350.0" y1="300" x2="440.0" y2="500" stroke="darkgrey" stroke-width="1.12" />
<line x1="450.0" y1="300" x2="550.0" y2="300" stroke="darkgrey" stroke-width="1.16" />
<line x1="450.0" y1="300" x2="440.0" y2="500" stroke="darkgrey" stroke-width="7.13" />
<line x1="300.0" y1="500" x2="440.0" y2="500" stroke="darkgrey" stroke-width="12.00" />
<circle cx="80.0" cy="100" r="25" fill="#8a2be2" stroke="black" stroke-width="2" />
<circle cx="168.0" cy="100" r="25" fill="#a143b4" stroke="black" stroke-width="2" />
<circle cx="256.0" cy="100" r="25" fill="#b85b87" stroke="black" stroke-width="2" />
<circle cx="344.0" cy="100" r="25" fill="#d0745a" stroke="black" stroke-width="2" />
<circle cx="432.0" cy="100" r="25" fill="#e78c2d" stroke="black" stroke-width="2" />
<circle cx="520.0" cy="100" r="25" fill="#ffa500" stroke="black" stroke-width="2" />
<circle cx="50.0" cy="300" r="25" fill="#a7a7a7" stroke="black" stroke-width="2" />
<circle cx="150.0" cy="300" r="25" fill="#ababab" stroke="black" stroke-width="2" />
<circle cx="250.0" cy="300" r="25" fill="#8b8b8b" stroke="black" stroke-width="2" />
<circle cx="350.0" cy="300" r="25" fill="#b8b8b8" stroke="black" stroke-width="2" />
<circle cx="450.0" cy="300" r="25" fill="#a2a2a2" stroke="black" stroke-width="2" />
<circle cx="550.0" cy="300" r="25" fill="#ababab" stroke="black" stroke-width="2" />
<circle cx="160.0" cy="500" r="22" fill="red" stroke="black" stroke-width="2" />
<text x="160.0" y="504" font-size="26" text-anchor="middle" fill="white" font-weight="bold">x</text>
<circle cx="300.0" cy="500" r="22" fill="blue" stroke="black" stroke-width="2" />
<text x="300.0" y="504" font-size="26" text-anchor="middle" fill="white" font-weight="bold">y</text>
<circle cx="440.0" cy="500" r="22" fill="green" stroke="black" stroke-width="2" />
<text x="440.0" y="504" font-size="26" text-anchor="middle" fill="white" font-weight="bold">z</text>
</svg>