<svg xmlns="http://www.w3.org/2000/svg" width="600" height="600">
<line x1="80.0" y1="100" x2="150.0" y2="300" stroke="darkgrey" stroke-width="7.21" />
<line x1="80.0" y1="100" x2="350.0" y2="300" stroke="darkgrey" stroke-width="0.52" />
<line x1="80.0" y1="100" x2="160.0" y2="500" stroke="darkgrey" stroke-width="11.71" />
<line x1="168.0" y1="100" x2="250.0" y2="300" stroke="darkgrey" stroke-width="1.35" />
<line x1="168.0" y1="100" x2="350.0" y2="300" stroke="darkgrey" stroke-width="9.83" />
<line x1="168.0" y1="100" x2="300.0" y2="500" stroke="darkgrey" stroke-width="7.79" />
<line x1="256.0" y1="100" x2="150.0" y2="300" stroke="darkgrey" stroke-width="10.43" />
<line x1="256.0" y1="100" x2="350.0" y2="300" stroke="darkgrey" stroke-width="1.55" />
<line x1="256.0" y1="100" x2="160.0" y2="500" stroke="darkgrey" stroke-width="5.68" />
<line x1="344.0" y1="100" x2="150.0" y2="300" stroke="darkgrey" stroke-width="9.78" />
<line x1="344.0" y1="100" x2="350.0" y2="300" stroke="darkgrey" stroke-width="3.44" />
<line x1="344.0" y1="100" x2="450.0" y2="300" stroke="darkgrey" stroke-width="8.00" />
<line x1="344.0" y1="100" x2="160.0" y2="500" stroke="darkgrey" stroke-width="0.66" />
<line x1="432.0" y1="100" x2="50.0" y2="300" stroke="darkgrey" stroke-width="7.85" />
<line x1="432.0" y1="100" x2="250.0" y2="300" stroke="darkgrey" stroke-width="10.97" />
<line x1="432.0" y1="100" x2="450.0" y2="300" stroke="darkgrey" stroke-width="1.77" />
<line x1="432.0" y1="100" x2="550.0" y2="300" stroke="darkgrey" stroke-width="6.57" />
<line x1="432.0" y1="100" x2="300.0" y2="500" stroke="darkgrey" stroke-width="11.10" />
<line x1="520.0" y1="100" x2="250.0" y2="300" stroke="darkgrey" stroke-width="12.00" />
<line x1="520.0" y1="100" x2="350.0" y2="300" stroke="darkgrey" stroke-width="6.89" />
<line x1="520.0" y1="100" x2="550.0" y2="300" stroke="darkgrey" stroke-width="8.47" />
<line x1="520.0" y1="100" x2="300.0" y2="500" stroke="darkgrey" stroke-width="12.00" />
<line x1="50.0" y1="300" x2="150.0" y2="300" stroke="darkgrey" stroke-width="4.32" />
<line x1="50.0" y1="300" x2="250.0" y2="300" stroke="darkgrey" stroke-width="2.76" />
<line x1="50.0" y1="300" x2="440.0" y2="500" stroke="darkgrey" stroke-width="11.25" />
<line x1="150.0" y1="300" x2="250.0" y2="300" stroke="darkgrey" stroke-width="10.25" />
<line x1="150.0" y1="300" x2="550.0" y2="300" stroke="darkgrey" stroke-width="0.66" />
<line x1="150.0" y1="300" x2="300.0" y2="500" stroke="darkgrey" stroke-width="7.89" />
<line x1="150.0" y1="300" x2="440.0" y2="500" stroke="darkgrey" stroke-width="5.51" />
<line x1="250.0" y1="300" x2="350.0" y2="300" stroke="darkgrey" stroke-width="9.69" />
<line x1="250.0" y1="300" x2="160.0" y2="500" stroke="darkgrey" stroke-width="0.06" />
<line x1="250.0" y1="300" x2="440.0" y2="500" stroke="darkgrey" stroke-width="12.00" />
<line x1="350.0" y1="300" x2="450.0" y2="300" stroke="darkgrey" stroke-width="6.62" />
<line x1="350.0" y1="300" x2="160.0" y2="500" stroke="darkgrey" stroke-width="8.89" />
<line x1="450.0" y1="300" x2="550.0" y2="300" stroke="darkgrey" stroke-width="11.26" />
<line x1="160.0" y1="500" x2="300.0" y2="500" stroke="darkgrey" stroke-width="11.17" />
<line x1="160.0" y1="500" x2="440.0" y2="500" stroke="darkgrey" stroke-width="9.91" />
<line x1="300.0" y1="500" x2="440.0" y2="500" stroke="darkgrey" stroke-width="5.51" />
<circle cx="80.0" cy="100" r="25" fill="#8a2be2" stroke="black" stroke-width="2" />
<circle cx="168.0" cy="100" r="25" fill="#a143b4" stroke="black" stroke-width="2" />
<circle cx="256.0" cy="100" r="25" fill="#b85b87" stroke="black" stroke-width="2" />
<circle cx="344.0" cy="100" r="25" fill="#d0745a" stroke="black" stroke-width="2" />
<circle cx="432.0" cy="100" r="25" fill="#e78c2d" stroke="black" stroke-width="2" />
<circle cx="520.0" cy="100" r="25" fill="#ffa500" stroke="black" stroke-width="2" />
<circle cx="50.0" cy="300" r="25" fill="#787878" stroke="black" stroke-width="2" />
<circle cx="150.0" cy="300" r="25" fill="#787878" stroke="black" stroke-width="2" />
<circle cx="250.0" cy="300" r="25" fill="#787878" stroke="black" stroke-width="2" />
<circle cx="350.0" cy="300" r="25" fill="#787878" stroke="black" stroke-width="2" />
<circle cx="450.0" cy="300" r="25" fill="#787878" stroke="black" stroke-width="2" />
<circle cx="550.0" cy="300" r="25" fill="#787878" stroke="black" stroke-width="2" />
<circle cx="160.0" cy="500" r="22" fill="red" stroke="black" stroke-width="2" />
<text x="160.0" y="504" font-size="26" text-anchor="middle" fill="white" font-weight="bold">x</text>
<circle cx="300.0" cy="500" r="22" fill="blue" stroke="black" stroke-width="2" />
<text x="300.0" y="504" font-size="26" text-anchor="middle" fill="white" font-weight="bold">y</text>
<circle cx="440.0" cy="500" r="22" fill="green" stroke="black" stroke-width="2" />
<text x="440.0" y="504" font-size="26" text-anchor="middle" fill="white" font-weight="bold">z</text>
</svg>