<svg xmlns="http://www.w3.org/2000/svg" width="600" height="600">
<line x1="80.0" y1="100" x2="50.0" y2="300" stroke="darkgrey" stroke-width="8.37" />
<line x1="80.0" y1="100" x2="350.0" y2="300" stroke="darkgrey" stroke-width="5.24" />
<line x1="80.0" y1="100" x2="450.0" y2="300" stroke="darkgrey" stroke-width="2.10" />
<line x1="80.0" y1="100" x2="440.0" y2="500" stroke="darkgrey" stroke-width="3.82" />
<line x1="168.0" y1="100" x2="450.0" y2="300" stroke="darkgrey" stroke-width="8.71" />
<line x1="256.0" y1="100" x2="350.0" y2="300" stroke="darkgrey" stroke-width="9.47" />
<line x1="256.0" y1="100" x2="450.0" y2="300" stroke="darkgrey" stroke-width="11.61" />
<line x1="256.0" y1="100" x2="300.0" y2="500" stroke="darkgrey" stroke-width="12.00" />
<line x1="344.0" y1="100" x2="150.0" y2="300" stroke="darkgrey" stroke-width="9.85" />
<line x1="344.0" y1="100" x2="550.0" y2="300" stroke="darkgrey" stroke-width="4.50" />
<line x1="344.0" y1="100" x2="160.0" y2="500" stroke="darkgrey" stroke-width="7.47" />
<line x1="432.0" y1="100" x2="150.0" y2="300" stroke="darkgrey" stroke-width="5.08" />
<line x1="432.0" y1="100" x2="250.0" y2="300" stroke="darkgrey" stroke-width="1.00" />
<line x1="432.0" y1="100" x2="160.0" y2="500" stroke="darkgrey" stroke-width="8.75" />
<line x1="520.0" y1="100" x2="150.0" y2="300" stroke="darkgrey" stroke-width="2.59" />
<line x1="520.0" y1="100" x2="250.0" y2="300" stroke="darkgrey" stroke-width="7.12" />
<line x1="520.0" y1="100" x2="350.0" y2="300" stroke="darkgrey" stroke-width="1.73" />
<line x1="520.0" y1="100" x2="450.0" y2="300" stroke="darkgrey" stroke-width="6.03" />
<line x1="520.0" y1="100" x2="550.0" y2="300" stroke="darkgrey" stroke-width="7.19" />
<line x1="520.0" y1="100" x2="160.0" y2="500" stroke="darkgrey" stroke-width="2.53" />
<line x1="520.0" y1="100" x2="300.0" y2="500" stroke="darkgrey" stroke-width="10.60" />
<line x1="50.0" y1="300" x2="150.0" y2="300" stroke="darkgrey" stroke-width="12.00" />
<line x1="50.0" y1="300" x2="250.0" y2="300" stroke="darkgrey" stroke-width="3.51" />
<line x1="50.0" y1="300" x2="450.0" y2="300" stroke="darkgrey" stroke-width="1.12" />
<line x1="50.0" y1="300" x2="160.0" y2="500" stroke="darkgrey" stroke-width="2.58" />
<line x1="150.0" y1="300" x2="350.0" y2="300" stroke="darkgrey" stroke-width="6.18" />
<line x1="250.0" y1="300" x2="350.0" y2="300" stroke="darkgrey" stroke-width="7.61" />
<line x1="250.0" y1="300" x2="300.0" y2="500" stroke="darkgrey" stroke-width="0.99" />
<line x1="250.0" y1="300" x2="440.0" y2="500" stroke="darkgrey" stroke-width="11.15" />
<line x1="350.0" y1="300" x2="450.0" y2="300" stroke="darkgrey" stroke-width="4.03" />
<line x1="350.0" y1="300" x2="550.0" y2="300" stroke="darkgrey" stroke-width="11.10" />
<line x1="350.0" y1="300" x2="440.0" y2="500" stroke="darkgrey" stroke-width="3.02" />
<line x1="450.0" y1="300" x2="160.0" y2="500" stroke="darkgrey" stroke-width="10.02" />
<line x1="450.0" y1="300" x2="440.0" y2="500" stroke="darkgrey" stroke-width="8.69" />
<line x1="160.0" y1="500" x2="440.0" y2="500" stroke="darkgrey" stroke-width="11.89" />
<circle cx="80.0" cy="100" r="25" fill="#8a2be2" stroke="black" stroke-width="2" />
<circle cx="168.0" cy="100" r="25" fill="#a143b4" stroke="black" stroke-width="2" />
<circle cx="256.0" cy="100" r="25" fill="#b85b87" stroke="black" stroke-width="2" />
<circle cx="344.0" cy="100" r="25" fill="#d0745a" stroke="black" stroke-width="2" />
<circle cx="432.0" cy="100" r="25" fill="#e78c2d" stroke="black" stroke-width="2" />
<circle cx="520.0" cy="100" r="25" fill="#ffa500" stroke="black" stroke-width="2" />
<circle cx="50.0" cy="300" r="25" fill="#717171" stroke="black" stroke-width="2" />
<circle cx="150.0" cy="300" r="25" fill="#919191" stroke="black" stroke-width="2" />
<circle cx="250.0" cy="300" r="25" fill="#a7a7a7" stroke="black" stroke-width="2" />
<circle cx="350.0" cy="300" r="25" fill="#848484" stroke="black" stroke-width="2" />
<circle cx="450.0" cy="300" r="25" fill="#7e7e7e" stroke="black" stroke-width="2" />
<circle cx="550.0" cy="300" r="25" fill="#acacac" stroke="black" stroke-width="2" />
<circle cx="160.0" cy="500" r="22" fill="red" stroke="black" stroke-width="2" />
<text x="160.0" y="504" font-size="26" text-anchor="middle" fill="white" font-weight="bold">x</text>
<circle cx="300.0" cy="500" r="22" fill="blue" stroke="black" stroke-width="2" />
<text x="300.0" y="504" font-size="26" text-anchor="middle" fill="white" font-weight="bold">y</text>
<circle cx="440.0" cy="500" r="22" fill="green" stroke="black" stroke-width="2" />
<text x="440.0" y="504" font-size="26" text-anchor="middle" fill="white" font-weight="bold">z</text>
</svg>